<svg width="136" height="61" viewBox="0 0 136 61" fill="none" xmlns="http://www.w3.org/2000/svg">
<rect x="0.5" y="0.5" width="135" height="60" rx="9.5" fill="white"/>
<rect x="0.5" y="0.5" width="135" height="60" rx="9.5" stroke="#647188"/>
<path d="M24.2651 24.5298C23.3592 24.5298 22.5431 24.687 21.8169 25.0015C21.0981 25.3084 20.4842 25.7576 19.9751 26.3491C19.4735 26.9331 19.0879 27.6406 18.8184 28.4717C18.5488 29.3027 18.4141 30.2386 18.4141 31.2793C18.4141 32.6569 18.6274 33.8548 19.0542 34.873C19.4884 35.8838 20.1323 36.6662 20.9858 37.2202C21.8468 37.7743 22.9212 38.0513 24.209 38.0513C24.9427 38.0513 25.6315 37.9914 26.2754 37.8716C26.9268 37.7443 27.5594 37.5871 28.1733 37.3999V39.062C27.5744 39.2866 26.9455 39.4513 26.2866 39.5562C25.6278 39.6685 24.8454 39.7246 23.9395 39.7246C22.2699 39.7246 20.8735 39.3802 19.7505 38.6914C18.6349 37.9951 17.7964 37.0143 17.2349 35.749C16.6808 34.4837 16.4038 32.9901 16.4038 31.2681C16.4038 30.0252 16.576 28.891 16.9204 27.8652C17.2723 26.832 17.7814 25.9411 18.4478 25.1924C19.1216 24.4437 19.9451 23.8672 20.9185 23.4629C21.8993 23.0511 23.0223 22.8452 24.2876 22.8452C25.1187 22.8452 25.9198 22.9276 26.6909 23.0923C27.4621 23.257 28.1584 23.4928 28.7798 23.7998L28.0161 25.417C27.492 25.1774 26.9155 24.9715 26.2866 24.7993C25.6652 24.6196 24.9914 24.5298 24.2651 24.5298ZM36.0571 26.9893C37.5246 26.9893 38.6139 27.3187 39.3252 27.9775C40.0365 28.6364 40.3921 29.6883 40.3921 31.1333V39.5H39.0332L38.6738 37.6807H38.584C38.2396 38.1299 37.8802 38.508 37.5059 38.8149C37.1315 39.1144 36.6973 39.3428 36.2031 39.5C35.7165 39.6497 35.1175 39.7246 34.4062 39.7246C33.6576 39.7246 32.9912 39.5936 32.4072 39.3315C31.8307 39.0695 31.374 38.6727 31.0371 38.1411C30.7077 37.6095 30.543 36.9357 30.543 36.1196C30.543 34.8918 31.0296 33.9484 32.0029 33.2896C32.9762 32.6307 34.4587 32.2713 36.4502 32.2114L38.5728 32.1216V31.3691C38.5728 30.306 38.3444 29.561 37.8877 29.1343C37.431 28.7075 36.7871 28.4941 35.9561 28.4941C35.3122 28.4941 34.6982 28.5877 34.1143 28.7749C33.5303 28.9621 32.9762 29.1829 32.4521 29.4375L31.8794 28.0225C32.4334 27.738 33.0698 27.4946 33.7886 27.2925C34.5073 27.0903 35.2635 26.9893 36.0571 26.9893ZM38.5503 33.4355L36.6748 33.5142C35.14 33.5741 34.0581 33.8249 33.4292 34.2666C32.8003 34.7083 32.4858 35.3335 32.4858 36.1421C32.4858 36.8459 32.6992 37.3662 33.126 37.7031C33.5527 38.04 34.118 38.2085 34.8218 38.2085C35.9149 38.2085 36.8096 37.9053 37.5059 37.2988C38.2021 36.6924 38.5503 35.7827 38.5503 34.5698V33.4355ZM50.0615 26.9668C51.5215 26.9668 52.6258 27.3262 53.3745 28.0449C54.1232 28.7562 54.4976 29.9017 54.4976 31.4814V39.5H52.6558V31.605C52.6558 30.5793 52.4199 29.8118 51.9482 29.3027C51.484 28.7936 50.769 28.5391 49.8032 28.5391C48.4406 28.5391 47.4823 28.9246 46.9282 29.6958C46.3742 30.467 46.0972 31.5863 46.0972 33.0537V39.5H44.2329V27.1914H45.7378L46.0186 28.9658H46.1196C46.3817 28.5316 46.7148 28.1685 47.1191 27.8765C47.5234 27.577 47.9764 27.3524 48.478 27.2026C48.9797 27.0454 49.5075 26.9668 50.0615 26.9668ZM63.2686 39.7246C62.1605 39.7246 61.1834 39.4963 60.3374 39.0396C59.4914 38.5828 58.8325 37.8866 58.3608 36.9507C57.8892 36.0148 57.6533 34.8356 57.6533 33.4131C57.6533 31.9232 57.9004 30.7065 58.3945 29.7632C58.8962 28.8123 59.585 28.1086 60.4609 27.6519C61.3369 27.1951 62.3327 26.9668 63.4482 26.9668C64.0622 26.9668 64.6536 27.0304 65.2227 27.1577C65.7992 27.2775 66.2708 27.431 66.6377 27.6182L66.0762 29.1792C65.7018 29.0295 65.2676 28.8947 64.7734 28.7749C64.2868 28.6551 63.8301 28.5952 63.4033 28.5952C62.5498 28.5952 61.8385 28.7786 61.2695 29.1455C60.708 29.5124 60.285 30.0514 60.0005 30.7627C59.7235 31.474 59.585 32.3499 59.585 33.3906C59.585 34.3864 59.7197 35.2362 59.9893 35.9399C60.2663 36.6437 60.6743 37.1828 61.2134 37.5571C61.7599 37.924 62.4412 38.1074 63.2573 38.1074C63.9087 38.1074 64.4964 38.04 65.0205 37.9053C65.5446 37.763 66.02 37.5983 66.4468 37.4111V39.0732C66.035 39.2829 65.5745 39.4438 65.0654 39.5562C64.5638 39.6685 63.9648 39.7246 63.2686 39.7246ZM74.106 26.9668C75.1541 26.9668 76.0526 27.1989 76.8013 27.6631C77.55 28.1273 78.1227 28.7786 78.5195 29.6172C78.9163 30.4482 79.1147 31.4215 79.1147 32.5371V33.6938H70.6133C70.6357 35.1388 70.9951 36.2394 71.6914 36.9956C72.3877 37.7518 73.3685 38.1299 74.6338 38.1299C75.4124 38.1299 76.1012 38.0588 76.7002 37.9165C77.2992 37.7743 77.9206 37.5646 78.5645 37.2876V38.9272C77.943 39.2043 77.3254 39.4064 76.7114 39.5337C76.105 39.661 75.3862 39.7246 74.5552 39.7246C73.3722 39.7246 72.339 39.485 71.4556 39.0059C70.5796 38.5192 69.8983 37.8079 69.4116 36.8721C68.925 35.9362 68.6816 34.7907 68.6816 33.4355C68.6816 32.1104 68.9025 30.9648 69.3442 29.999C69.7935 29.0257 70.4224 28.277 71.231 27.7529C72.047 27.2288 73.0054 26.9668 74.106 26.9668ZM74.0835 28.4941C73.0877 28.4941 72.2941 28.8198 71.7026 29.4712C71.1112 30.1226 70.7593 31.0322 70.647 32.2002H77.1606C77.1532 31.4665 77.0371 30.8226 76.8125 30.2686C76.5954 29.707 76.2622 29.2728 75.813 28.9658C75.3638 28.6514 74.7873 28.4941 74.0835 28.4941ZM84.1572 39.5H82.2817V22.0254H84.1572V39.5Z" fill="#647188"/>
<path d="M109.001 30.5001L114.244 35.7431M103.758 35.7431L109.001 30.5001L103.758 35.7431ZM114.244 25.2571L109 30.5001L114.244 25.2571ZM109 30.5001L103.758 25.2571L109 30.5001Z" stroke="#647188" stroke-width="2" stroke-linecap="round" stroke-linejoin="round"/>
</svg>
