<svg width="152" height="77" viewBox="0 0 152 77" fill="none" xmlns="http://www.w3.org/2000/svg">
<g filter="url(#filter0_d_70_820)">
<rect x="8" y="4" width="136" height="61" rx="10" fill="white"/>
<rect x="8.5" y="4.5" width="135" height="60" rx="9.5" stroke="#005DFF"/>
<path d="M32.2651 28.5298C31.3592 28.5298 30.5431 28.687 29.8169 29.0015C29.0981 29.3084 28.4842 29.7576 27.9751 30.3491C27.4735 30.9331 27.0879 31.6406 26.8184 32.4717C26.5488 33.3027 26.4141 34.2386 26.4141 35.2793C26.4141 36.6569 26.6274 37.8548 27.0542 38.873C27.4884 39.8838 28.1323 40.6662 28.9858 41.2202C29.8468 41.7743 30.9212 42.0513 32.209 42.0513C32.9427 42.0513 33.6315 41.9914 34.2754 41.8716C34.9268 41.7443 35.5594 41.5871 36.1733 41.3999V43.062C35.5744 43.2866 34.9455 43.4513 34.2866 43.5562C33.6278 43.6685 32.8454 43.7246 31.9395 43.7246C30.2699 43.7246 28.8735 43.3802 27.7505 42.6914C26.6349 41.9951 25.7964 41.0143 25.2349 39.749C24.6808 38.4837 24.4038 36.9901 24.4038 35.2681C24.4038 34.0252 24.576 32.891 24.9204 31.8652C25.2723 30.832 25.7814 29.9411 26.4478 29.1924C27.1216 28.4437 27.9451 27.8672 28.9185 27.4629C29.8993 27.0511 31.0223 26.8452 32.2876 26.8452C33.1187 26.8452 33.9198 26.9276 34.6909 27.0923C35.4621 27.257 36.1584 27.4928 36.7798 27.7998L36.0161 29.417C35.492 29.1774 34.9155 28.9715 34.2866 28.7993C33.6652 28.6196 32.9914 28.5298 32.2651 28.5298ZM44.0571 30.9893C45.5246 30.9893 46.6139 31.3187 47.3252 31.9775C48.0365 32.6364 48.3921 33.6883 48.3921 35.1333V43.5H47.0332L46.6738 41.6807H46.584C46.2396 42.1299 45.8802 42.508 45.5059 42.8149C45.1315 43.1144 44.6973 43.3428 44.2031 43.5C43.7165 43.6497 43.1175 43.7246 42.4062 43.7246C41.6576 43.7246 40.9912 43.5936 40.4072 43.3315C39.8307 43.0695 39.374 42.6727 39.0371 42.1411C38.7077 41.6095 38.543 40.9357 38.543 40.1196C38.543 38.8918 39.0296 37.9484 40.0029 37.2896C40.9762 36.6307 42.4587 36.2713 44.4502 36.2114L46.5728 36.1216V35.3691C46.5728 34.306 46.3444 33.561 45.8877 33.1343C45.431 32.7075 44.7871 32.4941 43.9561 32.4941C43.3122 32.4941 42.6982 32.5877 42.1143 32.7749C41.5303 32.9621 40.9762 33.1829 40.4521 33.4375L39.8794 32.0225C40.4334 31.738 41.0698 31.4946 41.7886 31.2925C42.5073 31.0903 43.2635 30.9893 44.0571 30.9893ZM46.5503 37.4355L44.6748 37.5142C43.14 37.5741 42.0581 37.8249 41.4292 38.2666C40.8003 38.7083 40.4858 39.3335 40.4858 40.1421C40.4858 40.8459 40.6992 41.3662 41.126 41.7031C41.5527 42.04 42.118 42.2085 42.8218 42.2085C43.9149 42.2085 44.8096 41.9053 45.5059 41.2988C46.2021 40.6924 46.5503 39.7827 46.5503 38.5698V37.4355ZM58.0615 30.9668C59.5215 30.9668 60.6258 31.3262 61.3745 32.0449C62.1232 32.7562 62.4976 33.9017 62.4976 35.4814V43.5H60.6558V35.605C60.6558 34.5793 60.4199 33.8118 59.9482 33.3027C59.484 32.7936 58.769 32.5391 57.8032 32.5391C56.4406 32.5391 55.4823 32.9246 54.9282 33.6958C54.3742 34.467 54.0972 35.5863 54.0972 37.0537V43.5H52.2329V31.1914H53.7378L54.0186 32.9658H54.1196C54.3817 32.5316 54.7148 32.1685 55.1191 31.8765C55.5234 31.577 55.9764 31.3524 56.478 31.2026C56.9797 31.0454 57.5075 30.9668 58.0615 30.9668ZM71.2686 43.7246C70.1605 43.7246 69.1834 43.4963 68.3374 43.0396C67.4914 42.5828 66.8325 41.8866 66.3608 40.9507C65.8892 40.0148 65.6533 38.8356 65.6533 37.4131C65.6533 35.9232 65.9004 34.7065 66.3945 33.7632C66.8962 32.8123 67.585 32.1086 68.4609 31.6519C69.3369 31.1951 70.3327 30.9668 71.4482 30.9668C72.0622 30.9668 72.6536 31.0304 73.2227 31.1577C73.7992 31.2775 74.2708 31.431 74.6377 31.6182L74.0762 33.1792C73.7018 33.0295 73.2676 32.8947 72.7734 32.7749C72.2868 32.6551 71.8301 32.5952 71.4033 32.5952C70.5498 32.5952 69.8385 32.7786 69.2695 33.1455C68.708 33.5124 68.285 34.0514 68.0005 34.7627C67.7235 35.474 67.585 36.3499 67.585 37.3906C67.585 38.3864 67.7197 39.2362 67.9893 39.9399C68.2663 40.6437 68.6743 41.1828 69.2134 41.5571C69.7599 41.924 70.4412 42.1074 71.2573 42.1074C71.9087 42.1074 72.4964 42.04 73.0205 41.9053C73.5446 41.763 74.02 41.5983 74.4468 41.4111V43.0732C74.035 43.2829 73.5745 43.4438 73.0654 43.5562C72.5638 43.6685 71.9648 43.7246 71.2686 43.7246ZM82.106 30.9668C83.1541 30.9668 84.0526 31.1989 84.8013 31.6631C85.55 32.1273 86.1227 32.7786 86.5195 33.6172C86.9163 34.4482 87.1147 35.4215 87.1147 36.5371V37.6938H78.6133C78.6357 39.1388 78.9951 40.2394 79.6914 40.9956C80.3877 41.7518 81.3685 42.1299 82.6338 42.1299C83.4124 42.1299 84.1012 42.0588 84.7002 41.9165C85.2992 41.7743 85.9206 41.5646 86.5645 41.2876V42.9272C85.943 43.2043 85.3254 43.4064 84.7114 43.5337C84.105 43.661 83.3862 43.7246 82.5552 43.7246C81.3722 43.7246 80.339 43.485 79.4556 43.0059C78.5796 42.5192 77.8983 41.8079 77.4116 40.8721C76.925 39.9362 76.6816 38.7907 76.6816 37.4355C76.6816 36.1104 76.9025 34.9648 77.3442 33.999C77.7935 33.0257 78.4224 32.277 79.231 31.7529C80.047 31.2288 81.0054 30.9668 82.106 30.9668ZM82.0835 32.4941C81.0877 32.4941 80.2941 32.8198 79.7026 33.4712C79.1112 34.1226 78.7593 35.0322 78.647 36.2002H85.1606C85.1532 35.4665 85.0371 34.8226 84.8125 34.2686C84.5954 33.707 84.2622 33.2728 83.813 32.9658C83.3638 32.6514 82.7873 32.4941 82.0835 32.4941ZM92.1572 43.5H90.2817V26.0254H92.1572V43.5Z" fill="#005DFF"/>
<path d="M117.001 34.5001L122.244 39.7431M111.758 39.7431L117.001 34.5001L111.758 39.7431ZM122.244 29.2571L117 34.5001L122.244 29.2571ZM117 34.5001L111.758 29.2571L117 34.5001Z" stroke="#005DFF" stroke-width="2" stroke-linecap="round" stroke-linejoin="round"/>
</g>
<defs>
<filter id="filter0_d_70_820" x="0" y="0" width="152" height="77" filterUnits="userSpaceOnUse" color-interpolation-filters="sRGB">
<feFlood flood-opacity="0" result="BackgroundImageFix"/>
<feColorMatrix in="SourceAlpha" type="matrix" values="0 0 0 0 0 0 0 0 0 0 0 0 0 0 0 0 0 0 127 0" result="hardAlpha"/>
<feOffset dy="4"/>
<feGaussianBlur stdDeviation="4"/>
<feComposite in2="hardAlpha" operator="out"/>
<feColorMatrix type="matrix" values="0 0 0 0 0 0 0 0 0 0 0 0 0 0 0 0 0 0 0.2 0"/>
<feBlend mode="normal" in2="BackgroundImageFix" result="effect1_dropShadow_70_820"/>
<feBlend mode="normal" in="SourceGraphic" in2="effect1_dropShadow_70_820" result="shape"/>
</filter>
</defs>
</svg>
