<svg width="190" height="76" viewBox="0 0 190 76" fill="none" xmlns="http://www.w3.org/2000/svg">
<g filter="url(#filter0_d_70_807)">
<rect x="8" y="4" width="174" height="60" rx="10" fill="white"/>
<path d="M27.2651 28.0298C26.3592 28.0298 25.5431 28.187 24.8169 28.5015C24.0981 28.8084 23.4842 29.2576 22.9751 29.8491C22.4735 30.4331 22.0879 31.1406 21.8184 31.9717C21.5488 32.8027 21.4141 33.7386 21.4141 34.7793C21.4141 36.1569 21.6274 37.3548 22.0542 38.373C22.4884 39.3838 23.1323 40.1662 23.9858 40.7202C24.8468 41.2743 25.9212 41.5513 27.209 41.5513C27.9427 41.5513 28.6315 41.4914 29.2754 41.3716C29.9268 41.2443 30.5594 41.0871 31.1733 40.8999V42.562C30.5744 42.7866 29.9455 42.9513 29.2866 43.0562C28.6278 43.1685 27.8454 43.2246 26.9395 43.2246C25.2699 43.2246 23.8735 42.8802 22.7505 42.1914C21.6349 41.4951 20.7964 40.5143 20.2349 39.249C19.6808 37.9837 19.4038 36.4901 19.4038 34.7681C19.4038 33.5252 19.576 32.391 19.9204 31.3652C20.2723 30.332 20.7814 29.4411 21.4478 28.6924C22.1216 27.9437 22.9451 27.3672 23.9185 26.9629C24.8993 26.5511 26.0223 26.3452 27.2876 26.3452C28.1187 26.3452 28.9198 26.4276 29.6909 26.5923C30.4621 26.757 31.1584 26.9928 31.7798 27.2998L31.0161 28.917C30.492 28.6774 29.9155 28.4715 29.2866 28.2993C28.6652 28.1196 27.9914 28.0298 27.2651 28.0298ZM40.0454 30.4668C40.2925 30.4668 40.5508 30.4818 40.8203 30.5117C41.0898 30.5342 41.3294 30.5679 41.5391 30.6128L41.3032 32.3423C41.1011 32.2899 40.8765 32.2487 40.6294 32.2188C40.3823 32.1888 40.1502 32.1738 39.9331 32.1738C39.439 32.1738 38.971 32.2749 38.5293 32.4771C38.0951 32.6717 37.7132 32.9562 37.3838 33.3306C37.0544 33.6974 36.7961 34.1429 36.6089 34.667C36.4217 35.1836 36.3281 35.7601 36.3281 36.3965V43H34.4526V30.6914H36.0024L36.2046 32.96H36.2832C36.5378 32.5033 36.8447 32.0877 37.2041 31.7134C37.5635 31.3315 37.979 31.0283 38.4507 30.8037C38.9299 30.5791 39.4614 30.4668 40.0454 30.4668ZM48.603 30.4668C49.6512 30.4668 50.5496 30.6989 51.2983 31.1631C52.047 31.6273 52.6198 32.2786 53.0166 33.1172C53.4134 33.9482 53.6118 34.9215 53.6118 36.0371V37.1938H45.1104C45.1328 38.6388 45.4922 39.7394 46.1885 40.4956C46.8848 41.2518 47.8656 41.6299 49.1309 41.6299C49.9095 41.6299 50.5983 41.5588 51.1973 41.4165C51.7962 41.2743 52.4176 41.0646 53.0615 40.7876V42.4272C52.4401 42.7043 51.8224 42.9064 51.2085 43.0337C50.6021 43.161 49.8833 43.2246 49.0522 43.2246C47.8693 43.2246 46.8361 42.985 45.9526 42.5059C45.0767 42.0192 44.3953 41.3079 43.9087 40.3721C43.422 39.4362 43.1787 38.2907 43.1787 36.9355C43.1787 35.6104 43.3996 34.4648 43.8413 33.499C44.2905 32.5257 44.9194 31.777 45.728 31.2529C46.5441 30.7288 47.5024 30.4668 48.603 30.4668ZM48.5806 31.9941C47.5848 31.9941 46.7912 32.3198 46.1997 32.9712C45.6082 33.6226 45.2563 34.5322 45.144 35.7002H51.6577C51.6502 34.9665 51.5342 34.3226 51.3096 33.7686C51.0924 33.207 50.7593 32.7728 50.3101 32.4658C49.8608 32.1514 49.2843 31.9941 48.5806 31.9941ZM61.3833 30.4893C62.8507 30.4893 63.9401 30.8187 64.6514 31.4775C65.3626 32.1364 65.7183 33.1883 65.7183 34.6333V43H64.3594L64 41.1807H63.9102C63.5658 41.6299 63.2064 42.008 62.832 42.3149C62.4577 42.6144 62.0234 42.8428 61.5293 43C61.0426 43.1497 60.4437 43.2246 59.7324 43.2246C58.9837 43.2246 58.3174 43.0936 57.7334 42.8315C57.1569 42.5695 56.7002 42.1727 56.3633 41.6411C56.0339 41.1095 55.8691 40.4357 55.8691 39.6196C55.8691 38.3918 56.3558 37.4484 57.3291 36.7896C58.3024 36.1307 59.7848 35.7713 61.7764 35.7114L63.8989 35.6216V34.8691C63.8989 33.806 63.6706 33.061 63.2139 32.6343C62.7572 32.2075 62.1133 31.9941 61.2822 31.9941C60.6383 31.9941 60.0244 32.0877 59.4404 32.2749C58.8564 32.4621 58.3024 32.6829 57.7783 32.9375L57.2056 31.5225C57.7596 31.238 58.396 30.9946 59.1147 30.7925C59.8335 30.5903 60.5897 30.4893 61.3833 30.4893ZM63.8765 36.9355L62.001 37.0142C60.4661 37.0741 59.3843 37.3249 58.7554 37.7666C58.1265 38.2083 57.812 38.8335 57.812 39.6421C57.812 40.3459 58.0254 40.8662 58.4521 41.2031C58.8789 41.54 59.4442 41.7085 60.1479 41.7085C61.241 41.7085 62.1357 41.4053 62.832 40.7988C63.5283 40.1924 63.8765 39.2827 63.8765 38.0698V36.9355ZM73.5347 41.6973C73.8416 41.6973 74.1561 41.6711 74.478 41.6187C74.8 41.5662 75.062 41.5026 75.2642 41.4277V42.8765C75.047 42.9738 74.7438 43.0562 74.3545 43.1235C73.9727 43.1909 73.5983 43.2246 73.2314 43.2246C72.5801 43.2246 71.9886 43.1123 71.457 42.8877C70.9255 42.6556 70.4987 42.2663 70.1768 41.7197C69.8623 41.1732 69.7051 40.417 69.7051 39.4512V32.1514H67.9531V31.2417L69.7163 30.5117L70.4575 27.8389H71.5806V30.6914H75.1855V32.1514H71.5806V39.395C71.5806 40.1662 71.7565 40.7427 72.1084 41.1245C72.4678 41.5063 72.9432 41.6973 73.5347 41.6973ZM82.4966 30.4668C83.5448 30.4668 84.4432 30.6989 85.1919 31.1631C85.9406 31.6273 86.5133 32.2786 86.9102 33.1172C87.307 33.9482 87.5054 34.9215 87.5054 36.0371V37.1938H79.0039C79.0264 38.6388 79.3857 39.7394 80.082 40.4956C80.7783 41.2518 81.7591 41.6299 83.0244 41.6299C83.8031 41.6299 84.4919 41.5588 85.0908 41.4165C85.6898 41.2743 86.3112 41.0646 86.9551 40.7876V42.4272C86.3337 42.7043 85.716 42.9064 85.1021 43.0337C84.4956 43.161 83.7769 43.2246 82.9458 43.2246C81.7629 43.2246 80.7297 42.985 79.8462 42.5059C78.9702 42.0192 78.2889 41.3079 77.8022 40.3721C77.3156 39.4362 77.0723 38.2907 77.0723 36.9355C77.0723 35.6104 77.2931 34.4648 77.7349 33.499C78.1841 32.5257 78.813 31.777 79.6216 31.2529C80.4377 30.7288 81.396 30.4668 82.4966 30.4668ZM82.4741 31.9941C81.4784 31.9941 80.6847 32.3198 80.0933 32.9712C79.5018 33.6226 79.1499 34.5322 79.0376 35.7002H85.5513C85.5438 34.9665 85.4277 34.3226 85.2031 33.7686C84.986 33.207 84.6528 32.7728 84.2036 32.4658C83.7544 32.1514 83.1779 31.9941 82.4741 31.9941ZM101.97 43H100.05V28.2656H94.8838V26.5811H107.114V28.2656H101.97V43ZM113.919 30.4893C115.387 30.4893 116.476 30.8187 117.188 31.4775C117.899 32.1364 118.254 33.1883 118.254 34.6333V43H116.896L116.536 41.1807H116.446C116.102 41.6299 115.743 42.008 115.368 42.3149C114.994 42.6144 114.56 42.8428 114.065 43C113.579 43.1497 112.98 43.2246 112.269 43.2246C111.52 43.2246 110.854 43.0936 110.27 42.8315C109.693 42.5695 109.236 42.1727 108.899 41.6411C108.57 41.1095 108.405 40.4357 108.405 39.6196C108.405 38.3918 108.892 37.4484 109.865 36.7896C110.839 36.1307 112.321 35.7713 114.312 35.7114L116.435 35.6216V34.8691C116.435 33.806 116.207 33.061 115.75 32.6343C115.293 32.2075 114.649 31.9941 113.818 31.9941C113.174 31.9941 112.561 32.0877 111.977 32.2749C111.393 32.4621 110.839 32.6829 110.314 32.9375L109.742 31.5225C110.296 31.238 110.932 30.9946 111.651 30.7925C112.37 30.5903 113.126 30.4893 113.919 30.4893ZM116.413 36.9355L114.537 37.0142C113.002 37.0741 111.92 37.3249 111.292 37.7666C110.663 38.2083 110.348 38.8335 110.348 39.6421C110.348 40.3459 110.562 40.8662 110.988 41.2031C111.415 41.54 111.98 41.7085 112.684 41.7085C113.777 41.7085 114.672 41.4053 115.368 40.7988C116.064 40.1924 116.413 39.2827 116.413 38.0698V36.9355ZM130.058 39.6309C130.058 40.417 129.859 41.0796 129.462 41.6187C129.073 42.1502 128.512 42.5508 127.778 42.8203C127.052 43.0898 126.183 43.2246 125.172 43.2246C124.311 43.2246 123.566 43.1572 122.938 43.0225C122.309 42.8877 121.758 42.6968 121.287 42.4497V40.7314C121.788 40.9785 122.387 41.2031 123.083 41.4053C123.78 41.6074 124.491 41.7085 125.217 41.7085C126.28 41.7085 127.052 41.5363 127.531 41.1919C128.01 40.8475 128.25 40.3796 128.25 39.7881C128.25 39.4512 128.152 39.1554 127.958 38.9009C127.77 38.6388 127.452 38.388 127.003 38.1484C126.554 37.9014 125.932 37.6318 125.139 37.3398C124.353 37.0404 123.671 36.7446 123.095 36.4526C122.526 36.1532 122.084 35.79 121.77 35.3633C121.463 34.9365 121.309 34.3825 121.309 33.7012C121.309 32.6605 121.728 31.8631 122.567 31.3091C123.413 30.7476 124.521 30.4668 125.891 30.4668C126.632 30.4668 127.325 30.5417 127.969 30.6914C128.62 30.8337 129.227 31.0283 129.788 31.2754L129.159 32.769C128.65 32.5519 128.107 32.3685 127.531 32.2188C126.954 32.069 126.367 31.9941 125.768 31.9941C124.907 31.9941 124.244 32.1364 123.78 32.4209C123.323 32.7054 123.095 33.0947 123.095 33.5889C123.095 33.9707 123.2 34.2852 123.409 34.5322C123.626 34.7793 123.971 35.0114 124.442 35.2285C124.914 35.4456 125.535 35.7002 126.307 35.9922C127.078 36.2767 127.744 36.5724 128.306 36.8794C128.867 37.1789 129.298 37.5457 129.597 37.98C129.904 38.4067 130.058 38.957 130.058 39.6309ZM134.909 25.5254V34.5996C134.909 34.8991 134.898 35.266 134.875 35.7002C134.853 36.127 134.834 36.505 134.819 36.8345H134.898C135.055 36.6398 135.284 36.3516 135.583 35.9697C135.89 35.5879 136.148 35.2809 136.358 35.0488L140.446 30.6914H142.636L137.683 35.9473L142.995 43H140.749L136.403 37.1714L134.909 38.5415V43H133.056V25.5254H134.909Z" fill="#4589FF"/>
<mask id="mask0_70_807" style="mask-type:alpha" maskUnits="userSpaceOnUse" x="148" y="22" width="24" height="24">
<rect x="148" y="22" width="24" height="24" fill="#D9D9D9"/>
</mask>
<g mask="url(#mask0_70_807)">
<path d="M157.55 37.15L166.025 28.675C166.225 28.475 166.463 28.375 166.738 28.375C167.013 28.375 167.25 28.475 167.45 28.675C167.65 28.875 167.75 29.1125 167.75 29.3875C167.75 29.6625 167.65 29.9 167.45 30.1L158.25 39.3C158.05 39.5 157.817 39.6 157.55 39.6C157.284 39.6 157.05 39.5 156.85 39.3L152.55 35C152.35 34.8 152.254 34.5625 152.263 34.2875C152.271 34.0125 152.375 33.775 152.575 33.575C152.775 33.375 153.013 33.275 153.288 33.275C153.563 33.275 153.8 33.375 154 33.575L157.55 37.15Z" fill="#4589FF"/>
</g>
</g>
<defs>
<filter id="filter0_d_70_807" x="0" y="0" width="190" height="76" filterUnits="userSpaceOnUse" color-interpolation-filters="sRGB">
<feFlood flood-opacity="0" result="BackgroundImageFix"/>
<feColorMatrix in="SourceAlpha" type="matrix" values="0 0 0 0 0 0 0 0 0 0 0 0 0 0 0 0 0 0 127 0" result="hardAlpha"/>
<feOffset dy="4"/>
<feGaussianBlur stdDeviation="4"/>
<feComposite in2="hardAlpha" operator="out"/>
<feColorMatrix type="matrix" values="0 0 0 0 0 0 0 0 0 0 0 0 0 0 0 0 0 0 0.2 0"/>
<feBlend mode="normal" in2="BackgroundImageFix" result="effect1_dropShadow_70_807"/>
<feBlend mode="normal" in="SourceGraphic" in2="effect1_dropShadow_70_807" result="shape"/>
</filter>
</defs>
</svg>
