<svg width="186" height="40" viewBox="0 0 186 40" fill="none" xmlns="http://www.w3.org/2000/svg">
<g clip-path="url(#clip0_602_3692)">
<mask id="mask0_602_3692" style="mask-type:alpha" maskUnits="userSpaceOnUse" x="30" y="8" width="24" height="24">
<rect x="30" y="8" width="24" height="24" fill="#D9D9D9"/>
</mask>
<g mask="url(#mask0_602_3692)">
<path d="M32.341 32.0151C31.6971 32.0151 31.1459 31.7858 30.6873 31.3273C30.2288 30.8687 29.9995 30.3175 29.9995 29.6736V13.2828C29.9995 12.6389 30.2288 12.0877 30.6873 11.6291C31.1459 11.1706 31.6971 10.9413 32.341 10.9413H42.7901L40.4486 13.2828H32.341V29.6736H48.7318V21.5367L51.0733 19.1952V29.6736C51.0733 30.3175 50.844 30.8687 50.3855 31.3273C49.9269 31.7858 49.3757 32.0151 48.7318 32.0151H32.341ZM45.4244 11.6145L47.0927 13.2536L39.3657 20.9806V22.649H41.0047L48.7611 14.8926L50.4294 16.5317L42.6731 24.288C42.4584 24.5027 42.2096 24.6734 41.9267 24.8003C41.6438 24.9271 41.3462 24.9905 41.034 24.9905H38.1949C37.8632 24.9905 37.5851 24.8783 37.3607 24.6539C37.1363 24.4295 37.0241 24.1515 37.0241 23.8197V20.9806C37.0241 20.6684 37.0827 20.3709 37.1997 20.0879C37.3168 19.805 37.4827 19.5562 37.6973 19.3416L45.4244 11.6145ZM50.4294 16.5317L45.4244 11.6145L48.3513 8.68757C48.8196 8.21926 49.3806 7.98511 50.0343 7.98511C50.6879 7.98511 51.2392 8.21926 51.688 8.68757L53.3271 10.3559C53.7758 10.8047 54.0002 11.3511 54.0002 11.995C54.0002 12.6389 53.7758 13.1853 53.3271 13.6341L50.4294 16.5317Z" fill="#42526E"/>
</g>
<path d="M70.7266 26.5L69.3203 22.875H64.7422L63.3438 26.5H62L66.4688 15.0312H67.6641L72.1016 26.5H70.7266ZM68.9219 21.6953L67.5859 18.0938C67.5547 18 67.5026 17.8464 67.4297 17.6328C67.362 17.4193 67.2917 17.1979 67.2188 16.9688C67.1458 16.7396 67.0859 16.5547 67.0391 16.4141C66.987 16.6276 66.9297 16.8411 66.8672 17.0547C66.8099 17.263 66.7526 17.4583 66.6953 17.6406C66.638 17.8177 66.5885 17.9688 66.5469 18.0938L65.1875 21.6953H68.9219ZM76.5391 26.6562C75.4557 26.6562 74.5964 26.2865 73.9609 25.5469C73.3307 24.8073 73.0156 23.7083 73.0156 22.25C73.0156 20.776 73.3385 19.6641 73.9844 18.9141C74.6302 18.1589 75.4896 17.7812 76.5625 17.7812C77.0156 17.7812 77.4115 17.8411 77.75 17.9609C78.0885 18.0807 78.3802 18.2422 78.625 18.4453C78.8698 18.6432 79.0755 18.8698 79.2422 19.125H79.3359C79.3151 18.9635 79.2943 18.7422 79.2734 18.4609C79.2526 18.1797 79.2422 17.9505 79.2422 17.7734V14.3438H80.5391V26.5H79.4922L79.2969 25.2812H79.2422C79.0807 25.5365 78.875 25.7682 78.625 25.9766C78.3802 26.1849 78.0859 26.3516 77.7422 26.4766C77.4036 26.5964 77.0026 26.6562 76.5391 26.6562ZM76.7422 25.5781C77.6589 25.5781 78.3073 25.3177 78.6875 24.7969C79.0677 24.276 79.2578 23.5026 79.2578 22.4766V22.2422C79.2578 21.1536 79.0755 20.3177 78.7109 19.7344C78.3516 19.151 77.6953 18.8594 76.7422 18.8594C75.9453 18.8594 75.349 19.1667 74.9531 19.7812C74.5573 20.3906 74.3594 21.224 74.3594 22.2812C74.3594 23.3333 74.5547 24.1458 74.9453 24.7188C75.3411 25.2917 75.9401 25.5781 76.7422 25.5781ZM86.3359 26.6562C85.2526 26.6562 84.3932 26.2865 83.7578 25.5469C83.1276 24.8073 82.8125 23.7083 82.8125 22.25C82.8125 20.776 83.1354 19.6641 83.7812 18.9141C84.4271 18.1589 85.2865 17.7812 86.3594 17.7812C86.8125 17.7812 87.2083 17.8411 87.5469 17.9609C87.8854 18.0807 88.1771 18.2422 88.4219 18.4453C88.6667 18.6432 88.8724 18.8698 89.0391 19.125H89.1328C89.112 18.9635 89.0911 18.7422 89.0703 18.4609C89.0495 18.1797 89.0391 17.9505 89.0391 17.7734V14.3438H90.3359V26.5H89.2891L89.0938 25.2812H89.0391C88.8776 25.5365 88.6719 25.7682 88.4219 25.9766C88.1771 26.1849 87.8828 26.3516 87.5391 26.4766C87.2005 26.5964 86.7995 26.6562 86.3359 26.6562ZM86.5391 25.5781C87.4557 25.5781 88.1042 25.3177 88.4844 24.7969C88.8646 24.276 89.0547 23.5026 89.0547 22.4766V22.2422C89.0547 21.1536 88.8724 20.3177 88.5078 19.7344C88.1484 19.151 87.4922 18.8594 86.5391 18.8594C85.7422 18.8594 85.1458 19.1667 84.75 19.7812C84.3542 20.3906 84.1562 21.224 84.1562 22.2812C84.1562 23.3333 84.3516 24.1458 84.7422 24.7188C85.138 25.2917 85.737 25.5781 86.5391 25.5781ZM100.945 26.5H99.6094V16.25H96.0156V15.0781H104.523V16.25H100.945V26.5ZM109.258 17.7969C110.279 17.7969 111.036 18.026 111.531 18.4844C112.026 18.9427 112.273 19.6745 112.273 20.6797V26.5H111.328L111.078 25.2344H111.016C110.776 25.5469 110.526 25.8099 110.266 26.0234C110.005 26.2318 109.703 26.3906 109.359 26.5C109.021 26.6042 108.604 26.6562 108.109 26.6562C107.589 26.6562 107.125 26.5651 106.719 26.3828C106.318 26.2005 106 25.9245 105.766 25.5547C105.536 25.1849 105.422 24.7161 105.422 24.1484C105.422 23.2943 105.76 22.638 106.438 22.1797C107.115 21.7214 108.146 21.4714 109.531 21.4297L111.008 21.3672V20.8438C111.008 20.1042 110.849 19.5859 110.531 19.2891C110.214 18.9922 109.766 18.8438 109.188 18.8438C108.74 18.8438 108.312 18.9089 107.906 19.0391C107.5 19.1693 107.115 19.3229 106.75 19.5L106.352 18.5156C106.737 18.3177 107.18 18.1484 107.68 18.0078C108.18 17.8672 108.706 17.7969 109.258 17.7969ZM110.992 22.2812L109.688 22.3359C108.62 22.3776 107.867 22.5521 107.43 22.8594C106.992 23.1667 106.773 23.6016 106.773 24.1641C106.773 24.6536 106.922 25.0156 107.219 25.25C107.516 25.4844 107.909 25.6016 108.398 25.6016C109.159 25.6016 109.781 25.3906 110.266 24.9688C110.75 24.5469 110.992 23.9141 110.992 23.0703V22.2812ZM120.484 24.1562C120.484 24.7031 120.346 25.1641 120.07 25.5391C119.799 25.9089 119.409 26.1875 118.898 26.375C118.393 26.5625 117.789 26.6562 117.086 26.6562C116.487 26.6562 115.969 26.6094 115.531 26.5156C115.094 26.4219 114.711 26.2891 114.383 26.1172V24.9219C114.732 25.0938 115.148 25.25 115.633 25.3906C116.117 25.5312 116.612 25.6016 117.117 25.6016C117.857 25.6016 118.393 25.4818 118.727 25.2422C119.06 25.0026 119.227 24.6771 119.227 24.2656C119.227 24.0312 119.159 23.8255 119.023 23.6484C118.893 23.4661 118.672 23.2917 118.359 23.125C118.047 22.9531 117.615 22.7656 117.062 22.5625C116.516 22.3542 116.042 22.1484 115.641 21.9453C115.245 21.737 114.938 21.4844 114.719 21.1875C114.505 20.8906 114.398 20.5052 114.398 20.0312C114.398 19.3073 114.69 18.7526 115.273 18.3672C115.862 17.9766 116.633 17.7812 117.586 17.7812C118.102 17.7812 118.583 17.8333 119.031 17.9375C119.484 18.0365 119.906 18.1719 120.297 18.3438L119.859 19.3828C119.505 19.2318 119.128 19.1042 118.727 19C118.326 18.8958 117.917 18.8438 117.5 18.8438C116.901 18.8438 116.44 18.9427 116.117 19.1406C115.799 19.3385 115.641 19.6094 115.641 19.9531C115.641 20.2188 115.714 20.4375 115.859 20.6094C116.01 20.7812 116.25 20.9427 116.578 21.0938C116.906 21.2448 117.339 21.4219 117.875 21.625C118.411 21.8229 118.875 22.0286 119.266 22.2422C119.656 22.4505 119.956 22.7057 120.164 23.0078C120.378 23.3047 120.484 23.6875 120.484 24.1562ZM123.859 14.3438V20.6562C123.859 20.8646 123.852 21.1198 123.836 21.4219C123.82 21.7188 123.807 21.9818 123.797 22.2109H123.852C123.961 22.0755 124.12 21.875 124.328 21.6094C124.542 21.3438 124.721 21.1302 124.867 20.9688L127.711 17.9375H129.234L125.789 21.5938L129.484 26.5H127.922L124.898 22.4453L123.859 23.3984V26.5H122.57V14.3438H123.859Z" fill="#42526E"/>
</g>
<defs>
<clipPath id="clip0_602_3692">
<rect width="186" height="40" fill="white"/>
</clipPath>
</defs>
</svg>
