<svg width="186" height="40" viewBox="0 0 186 40" fill="none" xmlns="http://www.w3.org/2000/svg">
<g clip-path="url(#clip0_602_3682)">
<path d="M48.4615 11.6923L48.4615 28.3077C48.461 28.7972 48.2664 29.2665 47.9203 29.6126C47.5742 29.9587 47.1049 30.1534 46.6154 30.1539L42.9231 30.1539C42.4336 30.1534 41.9643 29.9587 41.6182 29.6126C41.2721 29.2665 41.0774 28.7972 41.0769 28.3077L41.0769 11.6923C41.0774 11.2028 41.2721 10.7335 41.6182 10.3874C41.9643 10.0413 42.4336 9.84665 42.9231 9.84616L46.6154 9.84616C47.1049 9.84665 47.5742 10.0413 47.9203 10.3874C48.2664 10.7335 48.461 11.2028 48.4615 11.6923ZM42.9231 28.3077L46.6154 28.3077L46.6154 11.6923L42.9231 11.6923L42.9231 28.3077ZM42.9231 11.6923L42.9231 28.3077C42.9226 28.7972 42.7279 29.2665 42.3818 29.6126C42.0357 29.9587 41.5664 30.1533 41.0769 30.1538L37.3846 30.1538C36.8951 30.1533 36.4258 29.9587 36.0797 29.6126C35.7336 29.2665 35.539 28.7972 35.5385 28.3077L35.5385 11.6923C35.5389 11.2028 35.7336 10.7335 36.0797 10.3874C36.4258 10.0413 36.8951 9.84663 37.3846 9.84615L41.0769 9.84615C41.5664 9.84663 42.0357 10.0413 42.3818 10.3874C42.7279 10.7335 42.9226 11.2028 42.9231 11.6923ZM37.3846 28.3077L41.0769 28.3077L41.0769 11.6923L37.3846 11.6923L37.3846 28.3077ZM37.3846 11.6923L37.3846 28.3077C37.3841 28.7972 37.1895 29.2665 36.8433 29.6126C36.4972 29.9587 36.0279 30.1533 35.5385 30.1538L31.8462 30.1538C31.3567 30.1533 30.8874 29.9587 30.5413 29.6126C30.1952 29.2665 30.0005 28.7972 30 28.3077L30 11.6923C30.0005 11.2028 30.1951 10.7335 30.5413 10.3874C30.8874 10.0413 31.3567 9.84663 31.8462 9.84615L35.5385 9.84615C36.0279 9.84663 36.4972 10.0413 36.8433 10.3874C37.1895 10.7335 37.3841 11.2028 37.3846 11.6923ZM31.8462 28.3077L35.5385 28.3077L35.5385 11.6923L31.8462 11.6923L31.8462 28.3077Z" fill="#42526E"/>
<path d="M54 11.6925L54 28.3079C53.9995 28.7974 53.8048 29.2667 53.4587 29.6128C53.1126 29.9589 52.6433 30.1536 52.1538 30.1541L48.4615 30.1541C47.9721 30.1536 47.5028 29.9589 47.1567 29.6128C46.8105 29.2667 46.6159 28.7972 46.6154 28.3077L46.6154 11.6923C46.6159 11.2028 46.8105 10.7337 47.1567 10.3876C47.5028 10.0415 47.9721 9.84686 48.4615 9.84637L52.1538 9.84637C52.6433 9.84686 53.1126 10.0415 53.4587 10.3876C53.8048 10.7337 53.9995 11.203 54 11.6925ZM48.4615 28.3077L52.1538 28.3079L52.1538 11.6925L48.4615 11.6923L48.4615 28.3077Z" fill="#42526E"/>
<path d="M63.5625 15.0781H66.7969C68.224 15.0781 69.2969 15.2917 70.0156 15.7188C70.7344 16.1458 71.0938 16.8724 71.0938 17.8984C71.0938 18.3411 71.0078 18.7396 70.8359 19.0938C70.6693 19.4427 70.4245 19.7318 70.1016 19.9609C69.7786 20.1901 69.3802 20.349 68.9062 20.4375V20.5156C69.4062 20.5938 69.849 20.737 70.2344 20.9453C70.6198 21.1536 70.9219 21.4453 71.1406 21.8203C71.3594 22.1953 71.4688 22.6719 71.4688 23.25C71.4688 23.9531 71.3047 24.5469 70.9766 25.0312C70.6536 25.5156 70.1953 25.8828 69.6016 26.1328C69.0078 26.3776 68.3047 26.5 67.4922 26.5H63.5625V15.0781ZM64.8906 19.9766H67.0781C68.0729 19.9766 68.7604 19.8125 69.1406 19.4844C69.526 19.1562 69.7188 18.6771 69.7188 18.0469C69.7188 17.3958 69.4896 16.9271 69.0312 16.6406C68.5781 16.3542 67.8542 16.2109 66.8594 16.2109H64.8906V19.9766ZM64.8906 21.0938V25.3672H67.2656C68.2812 25.3672 69 25.1693 69.4219 24.7734C69.8438 24.3724 70.0547 23.8333 70.0547 23.1562C70.0547 22.724 69.9583 22.3542 69.7656 22.0469C69.5781 21.7396 69.2708 21.5052 68.8438 21.3438C68.4219 21.1771 67.8568 21.0938 67.1484 21.0938H64.8906ZM81.0938 22.2031C81.0938 22.9062 81.0026 23.5339 80.8203 24.0859C80.638 24.638 80.375 25.1042 80.0312 25.4844C79.6875 25.8646 79.2708 26.1562 78.7812 26.3594C78.2969 26.5573 77.7474 26.6562 77.1328 26.6562C76.5599 26.6562 76.0339 26.5573 75.5547 26.3594C75.0807 26.1562 74.6693 25.8646 74.3203 25.4844C73.9766 25.1042 73.7083 24.638 73.5156 24.0859C73.3281 23.5339 73.2344 22.9062 73.2344 22.2031C73.2344 21.2656 73.3932 20.4688 73.7109 19.8125C74.0286 19.151 74.4818 18.6484 75.0703 18.3047C75.6641 17.9557 76.3698 17.7812 77.1875 17.7812C77.9688 17.7812 78.651 17.9557 79.2344 18.3047C79.8229 18.6536 80.2786 19.1589 80.6016 19.8203C80.9297 20.4766 81.0938 21.2708 81.0938 22.2031ZM74.5781 22.2031C74.5781 22.8906 74.6693 23.487 74.8516 23.9922C75.0339 24.4974 75.3151 24.888 75.6953 25.1641C76.0755 25.4401 76.5651 25.5781 77.1641 25.5781C77.7578 25.5781 78.2448 25.4401 78.625 25.1641C79.0104 24.888 79.2943 24.4974 79.4766 23.9922C79.6589 23.487 79.75 22.8906 79.75 22.2031C79.75 21.5208 79.6589 20.9323 79.4766 20.4375C79.2943 19.9375 79.013 19.5521 78.6328 19.2812C78.2526 19.0104 77.7604 18.875 77.1562 18.875C76.2656 18.875 75.612 19.1693 75.1953 19.7578C74.7839 20.3464 74.5781 21.1615 74.5781 22.2031ZM86.5391 17.7969C87.5599 17.7969 88.3177 18.026 88.8125 18.4844C89.3073 18.9427 89.5547 19.6745 89.5547 20.6797V26.5H88.6094L88.3594 25.2344H88.2969C88.0573 25.5469 87.8073 25.8099 87.5469 26.0234C87.2865 26.2318 86.9844 26.3906 86.6406 26.5C86.3021 26.6042 85.8854 26.6562 85.3906 26.6562C84.8698 26.6562 84.4062 26.5651 84 26.3828C83.599 26.2005 83.2812 25.9245 83.0469 25.5547C82.8177 25.1849 82.7031 24.7161 82.7031 24.1484C82.7031 23.2943 83.0417 22.638 83.7188 22.1797C84.3958 21.7214 85.4271 21.4714 86.8125 21.4297L88.2891 21.3672V20.8438C88.2891 20.1042 88.1302 19.5859 87.8125 19.2891C87.4948 18.9922 87.0469 18.8438 86.4688 18.8438C86.0208 18.8438 85.5938 18.9089 85.1875 19.0391C84.7812 19.1693 84.3958 19.3229 84.0312 19.5L83.6328 18.5156C84.0182 18.3177 84.4609 18.1484 84.9609 18.0078C85.4609 17.8672 85.987 17.7969 86.5391 17.7969ZM88.2734 22.2812L86.9688 22.3359C85.901 22.3776 85.1484 22.5521 84.7109 22.8594C84.2734 23.1667 84.0547 23.6016 84.0547 24.1641C84.0547 24.6536 84.2031 25.0156 84.5 25.25C84.7969 25.4844 85.1901 25.6016 85.6797 25.6016C86.4401 25.6016 87.0625 25.3906 87.5469 24.9688C88.0312 24.5469 88.2734 23.9141 88.2734 23.0703V22.2812ZM96.1172 17.7812C96.2891 17.7812 96.4688 17.7917 96.6562 17.8125C96.8438 17.8281 97.0104 17.8516 97.1562 17.8828L96.9922 19.0859C96.8516 19.0495 96.6953 19.0208 96.5234 19C96.3516 18.9792 96.1901 18.9688 96.0391 18.9688C95.6953 18.9688 95.3698 19.0391 95.0625 19.1797C94.7604 19.3151 94.4948 19.513 94.2656 19.7734C94.0365 20.0286 93.8568 20.3385 93.7266 20.7031C93.5964 21.0625 93.5312 21.4635 93.5312 21.9062V26.5H92.2266V17.9375H93.3047L93.4453 19.5156H93.5C93.6771 19.1979 93.8906 18.9089 94.1406 18.6484C94.3906 18.3828 94.6797 18.1719 95.0078 18.0156C95.3411 17.8594 95.7109 17.7812 96.1172 17.7812ZM101.82 26.6562C100.737 26.6562 99.8776 26.2865 99.2422 25.5469C98.612 24.8073 98.2969 23.7083 98.2969 22.25C98.2969 20.776 98.6198 19.6641 99.2656 18.9141C99.9115 18.1589 100.771 17.7812 101.844 17.7812C102.297 17.7812 102.693 17.8411 103.031 17.9609C103.37 18.0807 103.661 18.2422 103.906 18.4453C104.151 18.6432 104.357 18.8698 104.523 19.125H104.617C104.596 18.9635 104.576 18.7422 104.555 18.4609C104.534 18.1797 104.523 17.9505 104.523 17.7734V14.3438H105.82V26.5H104.773L104.578 25.2812H104.523C104.362 25.5365 104.156 25.7682 103.906 25.9766C103.661 26.1849 103.367 26.3516 103.023 26.4766C102.685 26.5964 102.284 26.6562 101.82 26.6562ZM102.023 25.5781C102.94 25.5781 103.589 25.3177 103.969 24.7969C104.349 24.276 104.539 23.5026 104.539 22.4766V22.2422C104.539 21.1536 104.357 20.3177 103.992 19.7344C103.633 19.151 102.977 18.8594 102.023 18.8594C101.227 18.8594 100.63 19.1667 100.234 19.7812C99.8385 20.3906 99.6406 21.224 99.6406 22.2812C99.6406 23.3333 99.8359 24.1458 100.227 24.7188C100.622 25.2917 101.221 25.5781 102.023 25.5781Z" fill="#42526E"/>
</g>
<defs>
<clipPath id="clip0_602_3682">
<rect width="186" height="40" fill="white"/>
</clipPath>
</defs>
</svg>
