<svg width="186" height="40" viewBox="0 0 186 40" fill="none" xmlns="http://www.w3.org/2000/svg">
<g clip-path="url(#clip0_18156_6749)">
<mask id="mask0_18156_6749" style="mask-type:alpha" maskUnits="userSpaceOnUse" x="30" y="8" width="24" height="24">
<rect x="30" y="8" width="24" height="24" fill="#D9D9D9"/>
</mask>
<g mask="url(#mask0_18156_6749)">
<path d="M42.0002 27.2C40.8802 27.2 39.8102 27.375 38.7902 27.725C37.7702 28.075 36.8402 28.6 36.0002 29.3V29.6H48.0002V29.3C47.1602 28.6 46.2302 28.075 45.2102 27.725C44.1902 27.375 43.1202 27.2 42.0002 27.2ZM33.6002 28.22C34.6802 27.16 35.9352 26.325 37.3652 25.715C38.7952 25.105 40.3402 24.8 42.0002 24.8C43.6602 24.8 45.2052 25.105 46.6352 25.715C48.0652 26.325 49.3202 27.16 50.4002 28.22V12.8H33.6002V28.22ZM42.0002 22.4C40.8402 22.4 39.8502 21.99 39.0302 21.17C38.2102 20.35 37.8002 19.36 37.8002 18.2C37.8002 17.04 38.2102 16.05 39.0302 15.23C39.8502 14.41 40.8402 14 42.0002 14C43.1602 14 44.1502 14.41 44.9702 15.23C45.7902 16.05 46.2002 17.04 46.2002 18.2C46.2002 19.36 45.7902 20.35 44.9702 21.17C44.1502 21.99 43.1602 22.4 42.0002 22.4ZM42.0002 20C42.5002 20 42.9252 19.825 43.2752 19.475C43.6252 19.125 43.8002 18.7 43.8002 18.2C43.8002 17.7 43.6252 17.275 43.2752 16.925C42.9252 16.575 42.5002 16.4 42.0002 16.4C41.5002 16.4 41.0752 16.575 40.7252 16.925C40.3752 17.275 40.2002 17.7 40.2002 18.2C40.2002 18.7 40.3752 19.125 40.7252 19.475C41.0752 19.825 41.5002 20 42.0002 20ZM33.6002 32C32.9402 32 32.3752 31.765 31.9052 31.295C31.4352 30.825 31.2002 30.26 31.2002 29.6V12.8C31.2002 12.14 31.4352 11.575 31.9052 11.105C32.3752 10.635 32.9402 10.4 33.6002 10.4H34.8002V9.2C34.8002 8.53726 35.3375 8 36.0002 8C36.6629 8 37.2002 8.53726 37.2002 9.2V10.4H46.8002V9.2C46.8002 8.53726 47.3375 8 48.0002 8C48.6629 8 49.2002 8.53726 49.2002 9.2V10.4H50.4002C51.0602 10.4 51.6252 10.635 52.0952 11.105C52.5652 11.575 52.8002 12.14 52.8002 12.8V29.6C52.8002 30.26 52.5652 30.825 52.0952 31.295C51.6252 31.765 51.0602 32 50.4002 32H33.6002Z" fill="#42526E"/>
</g>
<path d="M68.4453 16.0859C67.8151 16.0859 67.2474 16.1953 66.7422 16.4141C66.2422 16.6276 65.8151 16.9401 65.4609 17.3516C65.112 17.7578 64.8438 18.25 64.6562 18.8281C64.4688 19.4062 64.375 20.0573 64.375 20.7812C64.375 21.7396 64.5234 22.5729 64.8203 23.2812C65.1224 23.9844 65.5703 24.5286 66.1641 24.9141C66.763 25.2995 67.5104 25.4922 68.4062 25.4922C68.9167 25.4922 69.3958 25.4505 69.8438 25.3672C70.2969 25.2786 70.737 25.1693 71.1641 25.0391V26.1953C70.7474 26.3516 70.3099 26.4661 69.8516 26.5391C69.3932 26.6172 68.849 26.6562 68.2188 26.6562C67.0573 26.6562 66.0859 26.4167 65.3047 25.9375C64.5286 25.4531 63.9453 24.7708 63.5547 23.8906C63.1693 23.0104 62.9766 21.9714 62.9766 20.7734C62.9766 19.9089 63.0964 19.1198 63.3359 18.4062C63.5807 17.6875 63.9349 17.0677 64.3984 16.5469C64.8672 16.026 65.4401 15.625 66.1172 15.3438C66.7995 15.0573 67.5807 14.9141 68.4609 14.9141C69.0391 14.9141 69.5964 14.9714 70.1328 15.0859C70.6693 15.2005 71.1536 15.3646 71.5859 15.5781L71.0547 16.7031C70.6901 16.5365 70.2891 16.3932 69.8516 16.2734C69.4193 16.1484 68.9505 16.0859 68.4453 16.0859ZM80.8281 22.2031C80.8281 22.9062 80.737 23.5339 80.5547 24.0859C80.3724 24.638 80.1094 25.1042 79.7656 25.4844C79.4219 25.8646 79.0052 26.1562 78.5156 26.3594C78.0312 26.5573 77.4818 26.6562 76.8672 26.6562C76.2943 26.6562 75.7682 26.5573 75.2891 26.3594C74.8151 26.1562 74.4036 25.8646 74.0547 25.4844C73.7109 25.1042 73.4427 24.638 73.25 24.0859C73.0625 23.5339 72.9688 22.9062 72.9688 22.2031C72.9688 21.2656 73.1276 20.4688 73.4453 19.8125C73.763 19.151 74.2161 18.6484 74.8047 18.3047C75.3984 17.9557 76.1042 17.7812 76.9219 17.7812C77.7031 17.7812 78.3854 17.9557 78.9688 18.3047C79.5573 18.6536 80.013 19.1589 80.3359 19.8203C80.6641 20.4766 80.8281 21.2708 80.8281 22.2031ZM74.3125 22.2031C74.3125 22.8906 74.4036 23.487 74.5859 23.9922C74.7682 24.4974 75.0495 24.888 75.4297 25.1641C75.8099 25.4401 76.2995 25.5781 76.8984 25.5781C77.4922 25.5781 77.9792 25.4401 78.3594 25.1641C78.7448 24.888 79.0286 24.4974 79.2109 23.9922C79.3932 23.487 79.4844 22.8906 79.4844 22.2031C79.4844 21.5208 79.3932 20.9323 79.2109 20.4375C79.0286 19.9375 78.7474 19.5521 78.3672 19.2812C77.987 19.0104 77.4948 18.875 76.8906 18.875C76 18.875 75.3464 19.1693 74.9297 19.7578C74.5182 20.3464 74.3125 21.1615 74.3125 22.2031ZM87.125 17.7812C88.1406 17.7812 88.9089 18.0312 89.4297 18.5312C89.9505 19.026 90.2109 19.8229 90.2109 20.9219V26.5H88.9297V21.0078C88.9297 20.2943 88.7656 19.7604 88.4375 19.4062C88.1146 19.0521 87.6172 18.875 86.9453 18.875C85.9974 18.875 85.3307 19.1432 84.9453 19.6797C84.5599 20.2161 84.3672 20.9948 84.3672 22.0156V26.5H83.0703V17.9375H84.1172L84.3125 19.1719H84.3828C84.5651 18.8698 84.7969 18.6172 85.0781 18.4141C85.3594 18.2057 85.6745 18.0495 86.0234 17.9453C86.3724 17.8359 86.7396 17.7812 87.125 17.7812ZM95.6484 25.5938C95.862 25.5938 96.0807 25.5755 96.3047 25.5391C96.5286 25.5026 96.7109 25.4583 96.8516 25.4062V26.4141C96.7005 26.4818 96.4896 26.5391 96.2188 26.5859C95.9531 26.6328 95.6927 26.6562 95.4375 26.6562C94.9844 26.6562 94.5729 26.5781 94.2031 26.4219C93.8333 26.2604 93.5365 25.9896 93.3125 25.6094C93.0938 25.2292 92.9844 24.7031 92.9844 24.0312V18.9531H91.7656V18.3203L92.9922 17.8125L93.5078 15.9531H94.2891V17.9375H96.7969V18.9531H94.2891V23.9922C94.2891 24.5286 94.4115 24.9297 94.6562 25.1953C94.9062 25.4609 95.237 25.5938 95.6484 25.5938ZM101.789 17.7969C102.81 17.7969 103.568 18.026 104.062 18.4844C104.557 18.9427 104.805 19.6745 104.805 20.6797V26.5H103.859L103.609 25.2344H103.547C103.307 25.5469 103.057 25.8099 102.797 26.0234C102.536 26.2318 102.234 26.3906 101.891 26.5C101.552 26.6042 101.135 26.6562 100.641 26.6562C100.12 26.6562 99.6562 26.5651 99.25 26.3828C98.849 26.2005 98.5312 25.9245 98.2969 25.5547C98.0677 25.1849 97.9531 24.7161 97.9531 24.1484C97.9531 23.2943 98.2917 22.638 98.9688 22.1797C99.6458 21.7214 100.677 21.4714 102.062 21.4297L103.539 21.3672V20.8438C103.539 20.1042 103.38 19.5859 103.062 19.2891C102.745 18.9922 102.297 18.8438 101.719 18.8438C101.271 18.8438 100.844 18.9089 100.438 19.0391C100.031 19.1693 99.6458 19.3229 99.2812 19.5L98.8828 18.5156C99.2682 18.3177 99.7109 18.1484 100.211 18.0078C100.711 17.8672 101.237 17.7969 101.789 17.7969ZM103.523 22.2812L102.219 22.3359C101.151 22.3776 100.398 22.5521 99.9609 22.8594C99.5234 23.1667 99.3047 23.6016 99.3047 24.1641C99.3047 24.6536 99.4531 25.0156 99.75 25.25C100.047 25.4844 100.44 25.6016 100.93 25.6016C101.69 25.6016 102.312 25.3906 102.797 24.9688C103.281 24.5469 103.523 23.9141 103.523 23.0703V22.2812ZM110.906 26.6562C110.135 26.6562 109.456 26.4974 108.867 26.1797C108.279 25.862 107.82 25.3776 107.492 24.7266C107.164 24.0755 107 23.2552 107 22.2656C107 21.2292 107.172 20.3828 107.516 19.7266C107.865 19.0651 108.344 18.5755 108.953 18.2578C109.562 17.9401 110.255 17.7812 111.031 17.7812C111.458 17.7812 111.87 17.8255 112.266 17.9141C112.667 17.9974 112.995 18.1042 113.25 18.2344L112.859 19.3203C112.599 19.2161 112.297 19.1224 111.953 19.0391C111.615 18.9557 111.297 18.9141 111 18.9141C110.406 18.9141 109.911 19.0417 109.516 19.2969C109.125 19.5521 108.831 19.9271 108.633 20.4219C108.44 20.9167 108.344 21.526 108.344 22.25C108.344 22.9427 108.438 23.5339 108.625 24.0234C108.818 24.513 109.102 24.888 109.477 25.1484C109.857 25.4036 110.331 25.5312 110.898 25.5312C111.352 25.5312 111.76 25.4844 112.125 25.3906C112.49 25.2917 112.82 25.1771 113.117 25.0469V26.2031C112.831 26.349 112.51 26.4609 112.156 26.5391C111.807 26.6172 111.391 26.6562 110.906 26.6562ZM117.914 25.5938C118.128 25.5938 118.346 25.5755 118.57 25.5391C118.794 25.5026 118.977 25.4583 119.117 25.4062V26.4141C118.966 26.4818 118.755 26.5391 118.484 26.5859C118.219 26.6328 117.958 26.6562 117.703 26.6562C117.25 26.6562 116.839 26.5781 116.469 26.4219C116.099 26.2604 115.802 25.9896 115.578 25.6094C115.359 25.2292 115.25 24.7031 115.25 24.0312V18.9531H114.031V18.3203L115.258 17.8125L115.773 15.9531H116.555V17.9375H119.062V18.9531H116.555V23.9922C116.555 24.5286 116.677 24.9297 116.922 25.1953C117.172 25.4609 117.503 25.5938 117.914 25.5938ZM126.391 24.1562C126.391 24.7031 126.253 25.1641 125.977 25.5391C125.706 25.9089 125.315 26.1875 124.805 26.375C124.299 26.5625 123.695 26.6562 122.992 26.6562C122.393 26.6562 121.875 26.6094 121.438 26.5156C121 26.4219 120.617 26.2891 120.289 26.1172V24.9219C120.638 25.0938 121.055 25.25 121.539 25.3906C122.023 25.5312 122.518 25.6016 123.023 25.6016C123.763 25.6016 124.299 25.4818 124.633 25.2422C124.966 25.0026 125.133 24.6771 125.133 24.2656C125.133 24.0312 125.065 23.8255 124.93 23.6484C124.799 23.4661 124.578 23.2917 124.266 23.125C123.953 22.9531 123.521 22.7656 122.969 22.5625C122.422 22.3542 121.948 22.1484 121.547 21.9453C121.151 21.737 120.844 21.4844 120.625 21.1875C120.411 20.8906 120.305 20.5052 120.305 20.0312C120.305 19.3073 120.596 18.7526 121.18 18.3672C121.768 17.9766 122.539 17.7812 123.492 17.7812C124.008 17.7812 124.49 17.8333 124.938 17.9375C125.391 18.0365 125.812 18.1719 126.203 18.3438L125.766 19.3828C125.411 19.2318 125.034 19.1042 124.633 19C124.232 18.8958 123.823 18.8438 123.406 18.8438C122.807 18.8438 122.346 18.9427 122.023 19.1406C121.706 19.3385 121.547 19.6094 121.547 19.9531C121.547 20.2188 121.62 20.4375 121.766 20.6094C121.917 20.7812 122.156 20.9427 122.484 21.0938C122.812 21.2448 123.245 21.4219 123.781 21.625C124.318 21.8229 124.781 22.0286 125.172 22.2422C125.562 22.4505 125.862 22.7057 126.07 23.0078C126.284 23.3047 126.391 23.6875 126.391 24.1562Z" fill="#42526E"/>
</g>
<defs>
<clipPath id="clip0_18156_6749">
<rect width="186" height="40" fill="white"/>
</clipPath>
</defs>
</svg>
